#!OML:ASF H:\MichaelJackson\Top Level 1\Subject 1\Session 1\male.ASF
:FULLY-SPECIFIED
:DEGREES
112
root 3.69091 16.8195 -18.7205 8.03654 -2.5496 -0.552567
lowerback -4.8931 -0.493221 -1.946
upperback -1.22373 -0.603942 2.41629
thorax 1.53056 -0.309726 3.54586
lowerneck -7.91679 -0.749256 -4.14283
upperneck -0.576995 -0.676465 2.63855
head 1.19358 -0.287472 1.51654
rclavicle 9.7156e-015 -1.27222e-014
rhumerus -39.2152 6.63614 -89.4777
rradius 35.3377
rwrist 12.9328
rhand -30.9199 -22.6981
rfingers 7.12502
rthumb -4.20575 -52.6364
lclavicle 9.7156e-015 -1.27222e-014
lhumerus -39.058 -3.77514 95.5826
lradius 39.1642
lwrist 5.85217
lhand -12.6762 4.1282
lfingers 7.12502
lthumb 13.4053 33.6769
rfemur -20.2054 4.01894 20.1018
rtibia 36.7851
rfoot -25.0098 -11.7089
rtoes 21.0217
lfemur -20.0038 1.43768 -20.5803
ltibia 36.5254
lfoot -25.0019 8.99161
ltoes 11.1461
113
root 3.68736 16.816 -18.7123 8.04086 -2.58833 -0.560627
lowerback -4.85281 -0.491547 -1.9539
upperback -1.24782 -0.601519 2.41963
thorax 1.48317 -0.30753 3.55418
lowerneck -7.88083 -0.728288 -4.15492
upperneck -0.62467 -0.648378 2.63513
head 1.17106 -0.273465 1.51812
rclavicle -4.17448e-015 -2.26615e-014
rhumerus -39.2626 6.63811 -89.4878
rradius 35.4285
rwrist 12.7824
rhand -30.8371 -22.8281
rfingers 7.12502
rthumb -4.12587 -52.7679
lclavicle -4.17448e-015 -2.26615e-014
lhumerus -39.1409 -3.63385 95.5152
lradius 39.1711
lwrist 5.82543
lhand -12.5647 4.22596
lfingers 7.12502
lthumb 13.5128 33.7675
rfemur -20.1881 3.79277 20.1158
rtibia 36.802
rfoot -25.1011 -11.4027
rtoes 21.0154
lfemur -20.0507 1.72502 -20.5748
ltibia 36.668
lfoot -25.059 8.83382
ltoes 10.9073
114
root 3.68365 16.8124 -18.7039 8.05518 -2.6193 -0.563994
lowerback -4.8346 -0.488817 -1.97304
upperback -1.2651 -0.597034 2.42448
thorax 1.4551 -0.304702 3.57045
lowerneck -7.83885 -0.711155 -4.17172
upperneck -0.691457 -0.62506 2.6324
head 1.14159 -0.261744 1.52044
rclavicle -1.47598e-014 -5.56597e-015
rhumerus -39.2948 6.63456 -89.49
rradius 35.5158
rwrist 12.6237
rhand -30.7533 -22.9522
rfingers 7.12502
rthumb -4.04488 -52.8936
lclavicle -1.47598e-014 -5.56597e-015
lhumerus -39.1954 -3.4628 95.437
lradius 39.1635
lwrist 5.78974
lhand -12.4541 4.30792
lfingers 7.12502
lthumb 13.6194 33.8424
rfemur -20.1834 3.5485 20.1242
rtibia 36.8254
rfoot -25.2031 -11.0736
rtoes 21.0556
lfemur -20.1362 2.09734 -20.5759
ltibia 36.8518
lfoot -25.1113 8.59668
ltoes 10.6242
115
root 3.67973 16.8083 -18.6954 8.0817 -2.62615 -0.564303
lowerback -4.83422 -0.49078 -1.9997
upperback -1.27976 -0.59834 2.43147
thorax 1.44023 -0.305013 3.59274
lowerneck -7.79378 -0.695829 -4.19503
upperneck -0.771561 -0.603643 2.63245
head 1.1075 -0.250846 1.52464
rclavicle 7.52897e-015 1.03368e-014
rhumerus -39.318 6.63141 -89.4881
rradius 35.5966
rwrist 12.464
rhand -30.6723 -23.06
rfingers 7.12502
rthumb -3.96667 -53.0028
lclavicle 7.52897e-015 1.03368e-014
lhumerus -39.2266 -3.25982 95.3468
lradius 39.1427
lwrist 5.74528
lhand -12.37 4.34633
lfingers 7.12502
lthumb 13.7005 33.8753
rfemur -20.1925 3.28143 20.1312
rtibia 36.8592
rfoot -25.3223 -10.7322
rtoes 21.1374
lfemur -20.2754 2.56577 -20.5818
ltibia 37.0919
lfoot -25.1534 8.26359
ltoes 10.284
